<?xml version="1.0" encoding="UTF-8" standalone="no"?><!DOCTYPE svg PUBLIC "-//W3C//DTD SVG 1.1//EN" "http://www.w3.org/Graphics/SVG/1.1/DTD/svg11.dtd"><svg width="100%" height="100%" viewBox="0 0 160 57" version="1.1" xmlns="http://www.w3.org/2000/svg" xmlns:xlink="http://www.w3.org/1999/xlink" xml:space="preserve" xmlns:serif="http://www.serif.com/" style="fill-rule:evenodd;clip-rule:evenodd;stroke-miterlimit:10;"><rect id="_159px" serif:id="159px" x="0.08" y="0.227" width="159" height="56.387" style="fill:none;"/><clipPath id="_clip1"><rect x="0.08" y="0.227" width="159" height="56.387"/></clipPath><g clip-path="url(#_clip1)"><g id="Layer-3" serif:id="Layer 3"><path d="M114.456,53.381l42.619,-0l-42.619,-0Z" style="fill:#f00;fill-rule:nonzero;"/><path d="M114.456,53.38l42.619,0" style="fill:none;fill-rule:nonzero;stroke:#03c;stroke-width:2.55px;"/><path d="M74.296,53.381l40.16,-0l-40.16,-0Z" style="fill:#f00;fill-rule:nonzero;"/><path d="M74.295,53.38l40.161,0" style="fill:none;fill-rule:nonzero;stroke:#fcee21;stroke-width:2.55px;"/><path d="M31.268,53.38l43.027,0" style="fill:none;fill-rule:nonzero;stroke:#7ac943;stroke-width:2.55px;"/><path d="M1.711,53.66l29.557,-0.28" style="fill:none;fill-rule:nonzero;stroke:#ed1c24;stroke-width:2.55px;"/><path d="M115.411,31.165c-0,-2.586 0.486,-5.004 1.458,-7.253c0.972,-2.249 2.39,-4.205 4.255,-5.866c1.866,-1.661 4.157,-2.971 6.877,-3.927c2.72,-0.955 5.836,-1.434 9.346,-1.434c1.27,0 2.544,0.067 3.82,0.2c1.278,0.133 2.54,0.341 3.787,0.623c1.246,0.282 2.46,0.64 3.643,1.07c1.183,0.431 2.309,0.944 3.375,1.54l-3.433,5.643c-0.643,-0.377 -1.372,-0.717 -2.187,-1.024c-0.814,-0.305 -1.688,-0.564 -2.621,-0.775c-0.933,-0.212 -1.898,-0.372 -2.892,-0.482c-0.996,-0.11 -1.995,-0.164 -2.998,-0.164c-2.319,-0 -4.388,0.293 -6.207,0.881c-1.818,0.587 -3.354,1.411 -4.608,2.468c-1.254,1.059 -2.211,2.324 -2.869,3.798c-0.658,1.474 -0.987,3.088 -0.987,4.843c-0,1.819 0.345,3.488 1.035,5.008c0.689,1.521 1.669,2.829 2.939,3.927c1.269,1.096 2.806,1.955 4.607,2.574c1.804,0.62 3.817,0.929 6.043,0.929c1.771,-0 3.394,-0.201 4.867,-0.599c1.473,-0.401 2.759,-0.968 3.856,-1.705c1.097,-0.737 1.99,-1.626 2.68,-2.668c0.689,-1.043 1.144,-2.215 1.364,-3.515l-12.838,-0l0,-6.137l19.539,-0l-0,0.023l0.023,-0.023c0.392,1.88 0.513,3.711 0.365,5.49c-0.149,1.779 -0.557,3.456 -1.223,5.031c-0.666,1.575 -1.579,3.021 -2.739,4.338c-1.16,1.316 -2.547,2.45 -4.161,3.398c-1.615,0.948 -3.449,1.685 -5.502,2.21c-2.054,0.524 -4.302,0.787 -6.748,0.787c-3.417,0 -6.478,-0.501 -9.181,-1.505c-2.704,-1.002 -4.997,-2.375 -6.878,-4.114c-1.88,-1.74 -3.319,-3.777 -4.315,-6.114c-0.995,-2.335 -1.492,-4.827 -1.492,-7.476" style="fill:#e4e4e4;fill-rule:nonzero;"/><path d="M96.015,32.975c1.411,0 2.645,-0.164 3.703,-0.493c1.059,-0.329 1.944,-0.791 2.657,-1.387c0.713,-0.596 1.246,-1.32 1.599,-2.176c0.353,-0.853 0.529,-1.806 0.529,-2.856c0,-2.053 -0.705,-3.64 -2.116,-4.761c-1.411,-1.121 -3.535,-1.681 -6.372,-1.681l-11.427,-0l0,13.354l11.427,0Zm-18.879,-19.843l18.691,-0c2.822,-0 5.266,0.294 7.336,0.881c2.069,0.589 3.785,1.438 5.149,2.552c1.364,1.112 2.378,2.468 3.045,4.067c0.666,1.599 0.998,3.409 0.998,5.431c0,1.364 -0.164,2.661 -0.494,3.891c-0.328,1.231 -0.833,2.363 -1.516,3.398c-0.681,1.034 -1.539,1.955 -2.574,2.762c-1.034,0.808 -2.249,1.477 -3.645,2.01l7.994,11.756l-9.122,0l-6.912,-10.439l-0.212,-0l-11.286,-0.023l0,10.462l-7.452,0l-0,-36.748Z" style="fill:#e4e4e4;fill-rule:nonzero;"/><path d="M60.711,10.64c-0.768,-0 -1.457,-0.118 -2.069,-0.353c-0.611,-0.235 -1.133,-0.553 -1.564,-0.952c-0.431,-0.4 -0.761,-0.858 -0.987,-1.376c-0.228,-0.517 -0.341,-1.058 -0.341,-1.622c0,-0.564 0.113,-1.101 0.341,-1.611c0.226,-0.509 0.556,-0.955 0.987,-1.34c0.431,-0.383 0.953,-0.686 1.564,-0.905c0.612,-0.219 1.301,-0.329 2.069,-0.329c0.768,-0 1.461,0.11 2.081,0.329c0.619,0.219 1.144,0.522 1.575,0.905c0.43,0.385 0.76,0.831 0.987,1.34c0.227,0.51 0.342,1.047 0.342,1.611c-0,0.564 -0.115,1.105 -0.342,1.622c-0.227,0.518 -0.557,0.976 -0.987,1.376c-0.431,0.399 -0.956,0.717 -1.575,0.952c-0.62,0.235 -1.313,0.353 -2.081,0.353m-0.164,26.921l-7.947,-16.694l-7.735,16.694l15.682,-0Zm-16.082,-26.921c-0.768,-0 -1.458,-0.118 -2.069,-0.353c-0.611,-0.235 -1.134,-0.553 -1.563,-0.952c-0.432,-0.4 -0.762,-0.858 -0.989,-1.376c-0.227,-0.517 -0.34,-1.058 -0.34,-1.622c0,-0.564 0.113,-1.101 0.34,-1.611c0.227,-0.509 0.557,-0.955 0.989,-1.34c0.429,-0.383 0.952,-0.686 1.563,-0.905c0.611,-0.219 1.301,-0.329 2.069,-0.329c0.768,-0 1.461,0.11 2.08,0.329c0.619,0.219 1.144,0.522 1.576,0.905c0.43,0.385 0.76,0.831 0.987,1.34c0.227,0.51 0.341,1.047 0.341,1.611c0,0.564 -0.114,1.105 -0.341,1.622c-0.227,0.518 -0.557,0.976 -0.987,1.376c-0.432,0.399 -0.957,0.717 -1.576,0.952c-0.619,0.235 -1.312,0.353 -2.08,0.353m4.114,2.492l7.9,0l17.774,36.749l-7.829,-0l-2.939,-6.184l-21.466,-0l-2.845,6.184l-7.853,-0l17.258,-36.749Z" style="fill:#e4e4e4;fill-rule:nonzero;"/><path d="M2.566,13.132l32.869,0l-0,6.536l-25.416,0l0,9.616l21.584,-0l0,6.137l-21.584,-0l0,14.459l-7.453,0l0,-36.748Z" style="fill:#e4e4e4;fill-rule:nonzero;"/></g></g></svg>