<?xml version="1.0" encoding="UTF-8" standalone="no"?><!DOCTYPE svg PUBLIC "-//W3C//DTD SVG 1.1//EN" "http://www.w3.org/Graphics/SVG/1.1/DTD/svg11.dtd"><svg width="157px" height="56px" version="1.1" xmlns="http://www.w3.org/2000/svg" xmlns:xlink="http://www.w3.org/1999/xlink" xml:space="preserve" xmlns:serif="http://www.serif.com/" style="fill-rule:evenodd;clip-rule:evenodd;stroke-miterlimit:10;"><rect id="Artboard1" x="0" y="0" width="157" height="55.004" style="fill:none;"/><clipPath id="_clip1"><rect x="0" y="0" width="157" height="55.004"/></clipPath><g clip-path="url(#_clip1)"><path d="M113.124,52.385l42.619,0l-42.619,0Z" style="fill:#f00;fill-rule:nonzero;"/><path d="M113.124,52.385l42.619,0" style="fill:none;fill-rule:nonzero;stroke:#03c;stroke-width:2.55px;"/><path d="M72.964,52.385l40.16,0l-40.16,0Z" style="fill:#f00;fill-rule:nonzero;"/><path d="M72.963,52.385l40.161,0" style="fill:none;fill-rule:nonzero;stroke:#fcee21;stroke-width:2.55px;"/><path d="M29.936,52.385l43.027,0" style="fill:none;fill-rule:nonzero;stroke:#7ac943;stroke-width:2.55px;"/><path d="M0.379,52.665l29.557,-0.28" style="fill:none;fill-rule:nonzero;stroke:#ed1c24;stroke-width:2.55px;"/><path d="M114.079,30.17c-0,-2.587 0.486,-5.004 1.458,-7.253c0.972,-2.25 2.39,-4.205 4.255,-5.866c1.866,-1.662 4.157,-2.971 6.877,-3.927c2.72,-0.956 5.836,-1.434 9.346,-1.434c1.27,0 2.543,0.066 3.82,0.199c1.278,0.134 2.54,0.341 3.786,0.624c1.247,0.282 2.461,0.639 3.644,1.069c1.183,0.432 2.309,0.945 3.375,1.541l-3.433,5.643c-0.643,-0.377 -1.372,-0.717 -2.187,-1.024c-0.815,-0.305 -1.688,-0.565 -2.621,-0.776c-0.933,-0.211 -1.898,-0.372 -2.893,-0.481c-0.995,-0.11 -1.994,-0.165 -2.997,-0.165c-2.319,0 -4.388,0.294 -6.207,0.882c-1.818,0.587 -3.354,1.411 -4.608,2.468c-1.254,1.059 -2.211,2.324 -2.869,3.797c-0.658,1.474 -0.987,3.088 -0.987,4.844c-0,1.818 0.345,3.487 1.035,5.007c0.689,1.521 1.669,2.83 2.939,3.927c1.269,1.097 2.805,1.956 4.607,2.575c1.803,0.619 3.817,0.929 6.043,0.929c1.771,-0 3.394,-0.201 4.867,-0.6c1.473,-0.4 2.759,-0.968 3.856,-1.705c1.097,-0.737 1.99,-1.626 2.68,-2.668c0.689,-1.042 1.144,-2.214 1.364,-3.515l-12.838,0l0,-6.137l19.539,0l-0,0.024l0.023,-0.024c0.392,1.881 0.513,3.711 0.365,5.49c-0.15,1.779 -0.557,3.457 -1.223,5.031c-0.666,1.576 -1.579,3.022 -2.739,4.339c-1.16,1.316 -2.547,2.449 -4.161,3.397c-1.615,0.948 -3.449,1.685 -5.502,2.21c-2.054,0.525 -4.303,0.788 -6.748,0.788c-3.418,-0 -6.478,-0.502 -9.181,-1.505c-2.704,-1.003 -4.997,-2.375 -6.878,-4.114c-1.88,-1.74 -3.319,-3.778 -4.315,-6.114c-0.995,-2.335 -1.492,-4.828 -1.492,-7.476" style="fill:#e4e4e4;fill-rule:nonzero;"/><path d="M94.683,31.98c1.411,0 2.645,-0.165 3.703,-0.493c1.058,-0.33 1.944,-0.792 2.657,-1.388c0.713,-0.595 1.246,-1.32 1.599,-2.175c0.353,-0.853 0.529,-1.806 0.529,-2.856c0,-2.053 -0.706,-3.64 -2.117,-4.762c-1.41,-1.12 -3.534,-1.68 -6.371,-1.68l-11.427,-0l0,13.354l11.427,0Zm-18.88,-19.843l18.692,-0c2.822,-0 5.266,0.294 7.336,0.881c2.069,0.588 3.785,1.438 5.149,2.551c1.363,1.113 2.378,2.469 3.045,4.067c0.666,1.6 0.998,3.41 0.998,5.432c0,1.363 -0.164,2.661 -0.494,3.891c-0.328,1.231 -0.833,2.363 -1.516,3.398c-0.681,1.034 -1.539,1.955 -2.575,2.762c-1.033,0.807 -2.248,1.477 -3.644,2.01l7.994,11.756l-9.122,-0l-6.912,-10.439l-0.212,-0l-11.286,-0.023l0,10.462l-7.453,-0l0,-36.748Z" style="fill:#e4e4e4;fill-rule:nonzero;"/><path d="M59.379,9.644c-0.769,0 -1.458,-0.117 -2.069,-0.353c-0.611,-0.235 -1.133,-0.552 -1.564,-0.952c-0.431,-0.4 -0.761,-0.858 -0.988,-1.375c-0.227,-0.517 -0.34,-1.058 -0.34,-1.622c0,-0.565 0.113,-1.101 0.34,-1.611c0.227,-0.509 0.557,-0.955 0.988,-1.34c0.431,-0.383 0.953,-0.686 1.564,-0.905c0.611,-0.22 1.3,-0.33 2.069,-0.33c0.768,0 1.461,0.11 2.081,0.33c0.619,0.219 1.144,0.522 1.575,0.905c0.43,0.385 0.759,0.831 0.986,1.34c0.228,0.51 0.342,1.046 0.342,1.611c0,0.564 -0.114,1.105 -0.342,1.622c-0.227,0.517 -0.556,0.975 -0.986,1.375c-0.431,0.4 -0.956,0.717 -1.575,0.952c-0.62,0.236 -1.313,0.353 -2.081,0.353m-0.164,26.921l-7.947,-16.693l-7.736,16.693l15.683,0Zm-16.083,-26.921c-0.768,0 -1.458,-0.117 -2.068,-0.353c-0.611,-0.235 -1.134,-0.552 -1.563,-0.952c-0.432,-0.4 -0.762,-0.858 -0.989,-1.375c-0.227,-0.517 -0.34,-1.058 -0.34,-1.622c-0,-0.565 0.113,-1.101 0.34,-1.611c0.227,-0.509 0.557,-0.955 0.989,-1.34c0.429,-0.383 0.952,-0.686 1.563,-0.905c0.61,-0.22 1.3,-0.33 2.068,-0.33c0.769,0 1.462,0.11 2.081,0.33c0.619,0.219 1.144,0.522 1.576,0.905c0.43,0.385 0.759,0.831 0.987,1.34c0.227,0.51 0.341,1.046 0.341,1.611c0,0.564 -0.114,1.105 -0.341,1.622c-0.228,0.517 -0.557,0.975 -0.987,1.375c-0.432,0.4 -0.957,0.717 -1.576,0.952c-0.619,0.236 -1.312,0.353 -2.081,0.353m4.115,2.493l7.9,-0l17.774,36.748l-7.829,0l-2.939,-6.184l-21.466,0l-2.845,6.184l-7.853,0l17.258,-36.748Z" style="fill:#e4e4e4;fill-rule:nonzero;"/><path d="M1.234,12.137l32.869,-0l-0,6.536l-25.416,-0l-0,9.616l21.584,-0l-0,6.137l-21.584,-0l-0,14.459l-7.453,0l0,-36.748Z" style="fill:#e4e4e4;fill-rule:nonzero;"/></g></svg>