<svg xmlns="http://www.w3.org/2000/svg" viewBox="0 0 1024 458.04"><defs><style>.cls-1{fill:#fff;}.cls-2,.cls-3{fill:red;}.cls-2{stroke:#03c;}.cls-2,.cls-3,.cls-4,.cls-5{stroke-miterlimit:10;stroke-width:11.55px;}.cls-3{stroke:#fcee21;}.cls-4,.cls-5{fill:none;}.cls-4{stroke:#7ac943;}.cls-5{stroke:#ed1c24;}</style></defs><title>farg-social-logo_l_rect</title><g id="large"><rect class="cls-1" x="1" y="1" width="1022" height="456.04"/><path d="M1022,2V456H2V2H1022m2-2H0V458H1024V0Z"/><line id="b" class="cls-2" x1="701.11" y1="333.07" x2="931.13" y2="333.07"/><line id="y" class="cls-3" x1="484.36" y1="333.07" x2="701.11" y2="333.07"/><line id="g" class="cls-4" x1="252.15" y1="333.07" x2="484.36" y2="333.07"/><line id="r" class="cls-5" x1="92.63" y1="334.58" x2="252.15" y2="333.07"/><path id="g-2" data-name="g" d="M706.27,213.17A97.72,97.72,0,0,1,714.13,174a89.66,89.66,0,0,1,23-31.66q15.1-13.44,37.12-21.19t50.44-7.74a198.51,198.51,0,0,1,20.62,1.08,175.4,175.4,0,0,1,20.43,3.36,162.28,162.28,0,0,1,19.66,5.78A123.35,123.35,0,0,1,903.58,132l-18.52,30.45a76.65,76.65,0,0,0-11.8-5.52,108.76,108.76,0,0,0-14.15-4.18,140,140,0,0,0-15.61-2.61,148,148,0,0,0-16.18-.88q-18.78,0-33.5,4.76A72.79,72.79,0,0,0,769,167.3a56.82,56.82,0,0,0-15.48,20.49,63.41,63.41,0,0,0-5.33,26.14,64.73,64.73,0,0,0,5.58,27,61.06,61.06,0,0,0,15.87,21.19,74.77,74.77,0,0,0,24.87,13.9,108.37,108.37,0,0,0,58.87,1.77,69.87,69.87,0,0,0,20.82-9.2,51.38,51.38,0,0,0,14.46-14.4,48.6,48.6,0,0,0,7.36-19H826.69V202.13H932.13v.13l.13-.13a102.67,102.67,0,0,1,2,29.63,88.42,88.42,0,0,1-6.6,27.15,85.87,85.87,0,0,1-14.78,23.42,91.42,91.42,0,0,1-22.46,18.33,114,114,0,0,1-29.7,11.93,147,147,0,0,1-36.41,4.25q-27.67,0-49.56-8.12t-37.11-22.21a95.42,95.42,0,0,1-23.29-33A101.83,101.83,0,0,1,706.27,213.17Z"/><path id="r-2" data-name="r" d="M499.69,115.84H600.57q22.84,0,39.59,4.76T668,134.37a55.59,55.59,0,0,1,16.44,21.95,75.7,75.7,0,0,1,5.39,29.31,80.73,80.73,0,0,1-2.67,21A61.44,61.44,0,0,1,665,239.88a75.51,75.51,0,0,1-19.67,10.85l43.15,63.45H639.27L602,257.84h-1.14l-60.91-.13v56.47H499.69Zm101.9,107.1a67.66,67.66,0,0,0,20-2.66,41.3,41.3,0,0,0,14.34-7.49,30.1,30.1,0,0,0,8.63-11.74,40.11,40.11,0,0,0,2.85-15.42q0-16.62-11.42-25.69t-34.38-9.07H539.92v72.07Z"/><path id="a" d="M345.57,115.84h42.64l95.93,198.34H441.88L426,280.8H310.17l-15.35,33.38H252.43Zm-22.2-13.45a30.9,30.9,0,0,1-11.17-1.9,26,26,0,0,1-8.44-5.14,22.3,22.3,0,0,1-5.33-7.42,21.48,21.48,0,0,1-1.84-8.76,21.1,21.1,0,0,1,7.17-15.92,25.63,25.63,0,0,1,8.44-4.89,33,33,0,0,1,11.17-1.78,33.52,33.52,0,0,1,11.22,1.78,25.47,25.47,0,0,1,8.51,4.89,21.1,21.1,0,0,1,7.17,15.92,21.64,21.64,0,0,1-1.84,8.76,22.44,22.44,0,0,1-5.33,7.42,25.77,25.77,0,0,1-8.51,5.14A31.37,31.37,0,0,1,323.37,102.39Zm86.79,145.29-42.89-90.09-41.75,90.09Zm.89-145.29a30.9,30.9,0,0,1-11.17-1.9,26,26,0,0,1-8.44-5.14,22.44,22.44,0,0,1-5.33-7.42,21.64,21.64,0,0,1-1.84-8.76,21.1,21.1,0,0,1,7.17-15.92,25.63,25.63,0,0,1,8.44-4.89,33,33,0,0,1,11.17-1.78,33.58,33.58,0,0,1,11.23,1.78,25.52,25.52,0,0,1,8.5,4.89A21.1,21.1,0,0,1,438,79.17a21.64,21.64,0,0,1-1.84,8.76,22.3,22.3,0,0,1-5.33,7.42,25.83,25.83,0,0,1-8.5,5.14A31.42,31.42,0,0,1,411.05,102.39Z"/><path id="f" d="M97.24,115.84H274.63v35.28H137.46V203H254v33.12H137.46v78H97.24Z"/><path d="M111.63,390.68a28.81,28.81,0,0,0,8.19,3.29,39.88,39.88,0,0,0,9.15,1,26.87,26.87,0,0,0,5.28-.43,12.94,12.94,0,0,0,3.38-1.12,4.54,4.54,0,0,0,1.8-1.55,3.4,3.4,0,0,0,.53-1.77,2.79,2.79,0,0,0-1.14-2.23,5.91,5.91,0,0,0-3.74-.93,24.46,24.46,0,0,0-2.6.15l-2.93.33c-1,.11-2.09.22-3.2.32s-2.22.16-3.36.16a21.69,21.69,0,0,1-6.35-.81,11.87,11.87,0,0,1-4.26-2.2,8.11,8.11,0,0,1-2.39-3.3,11.16,11.16,0,0,1-.75-4.11,10.43,10.43,0,0,1,1.31-5.15,12.3,12.3,0,0,1,3.72-4.08,18.68,18.68,0,0,1,5.85-2.68,28.26,28.26,0,0,1,7.64-1,41.32,41.32,0,0,1,4.61.27c1.6.17,3.18.4,4.73.7s3,.62,4.47,1a35.86,35.86,0,0,1,3.78,1.23L142.47,375a51.87,51.87,0,0,0-7-2.06,33.46,33.46,0,0,0-7.18-.76,20.76,20.76,0,0,0-4.36.39,10.46,10.46,0,0,0-2.9,1,4.32,4.32,0,0,0-1.62,1.46,3.14,3.14,0,0,0-.52,1.72,2.56,2.56,0,0,0,.27,1.18,2.3,2.3,0,0,0,.87.92,4.78,4.78,0,0,0,1.57.58,11.79,11.79,0,0,0,2.41.21,27.09,27.09,0,0,0,2.76-.16l3-.32q1.58-.18,3.27-.33c1.13-.11,2.29-.16,3.46-.16a19.2,19.2,0,0,1,5.76.78,11.35,11.35,0,0,1,4.07,2.17,8.83,8.83,0,0,1,2.42,3.29,10.34,10.34,0,0,1,.81,4.12,11.27,11.27,0,0,1-1.33,5.37,12.43,12.43,0,0,1-4,4.3,20.93,20.93,0,0,1-6.57,2.83,35.68,35.68,0,0,1-9.06,1,46.64,46.64,0,0,1-6.12-.39,52.37,52.37,0,0,1-5.62-1.05,44.45,44.45,0,0,1-5-1.57,38.06,38.06,0,0,1-4.27-1.92Z"/><path d="M270,383.61a17.29,17.29,0,0,1,1.6-7.39,18,18,0,0,1,4.56-6,22,22,0,0,1,7.17-4.07,30.68,30.68,0,0,1,18.89,0,22,22,0,0,1,7.16,4.07,17.84,17.84,0,0,1,4.56,6,17.84,17.84,0,0,1,0,14.77,18,18,0,0,1-4.56,6,22,22,0,0,1-7.16,4.06,30.68,30.68,0,0,1-18.89,0,22,22,0,0,1-7.17-4.06,18.11,18.11,0,0,1-4.56-6A17.28,17.28,0,0,1,270,383.61Zm9.65,0a10,10,0,0,0,3.46,7.64,12.69,12.69,0,0,0,4.12,2.39,17.88,17.88,0,0,0,11.08,0,12.69,12.69,0,0,0,4.12-2.39,10.18,10.18,0,0,0,0-15.32,12.69,12.69,0,0,0-4.12-2.39,17.88,17.88,0,0,0-11.08,0,12.69,12.69,0,0,0-4.12,2.39,10.11,10.11,0,0,0-3.46,7.68Z"/><path d="M437,383.7a19.14,19.14,0,0,1,1.47-7.52,16.91,16.91,0,0,1,4.31-6.05,20.33,20.33,0,0,1,6.95-4,28,28,0,0,1,9.38-1.46,40,40,0,0,1,4.62.28,41.56,41.56,0,0,1,4.49.79,38.47,38.47,0,0,1,4,1.21,19.85,19.85,0,0,1,3.29,1.54l-4.25,6.92a30.81,30.81,0,0,0-5.69-2.05,22.68,22.68,0,0,0-5.44-.65,18.15,18.15,0,0,0-5.68.82,12.42,12.42,0,0,0-4.26,2.3,9.76,9.76,0,0,0-2.67,3.47,10.36,10.36,0,0,0-.92,4.36,9.78,9.78,0,0,0,1,4.35,10.09,10.09,0,0,0,2.76,3.45,13.46,13.46,0,0,0,4.31,2.26,18.1,18.1,0,0,0,5.63.82,21.22,21.22,0,0,0,6.44-1,25.18,25.18,0,0,0,5.62-2.57l4.26,6.91a31.42,31.42,0,0,1-3.57,1.85,30.09,30.09,0,0,1-4.11,1.47,35.8,35.8,0,0,1-4.59,1,33.64,33.64,0,0,1-5,.36,28.87,28.87,0,0,1-9.4-1.43,20.66,20.66,0,0,1-7-4,17.22,17.22,0,0,1-4.42-6A18.3,18.3,0,0,1,437,383.7Z"/><path d="M605.67,360.31a7.32,7.32,0,0,1-2.47-.39,5.7,5.7,0,0,1-1.88-1.05,4.67,4.67,0,0,1-1.19-1.55,4.34,4.34,0,0,1-.42-1.88,4.42,4.42,0,0,1,1.61-3.44,5.87,5.87,0,0,1,1.88-1,7.32,7.32,0,0,1,2.47-.39,7.44,7.44,0,0,1,2.49.39,6,6,0,0,1,1.88,1,4.42,4.42,0,0,1,1.61,3.44,4.34,4.34,0,0,1-.42,1.88,4.67,4.67,0,0,1-1.19,1.55,5.81,5.81,0,0,1-1.88,1.05A7.44,7.44,0,0,1,605.67,360.31Zm-4.59,5h9.18v36.61h-9.18Z"/><path d="M734.62,390.37a10.08,10.08,0,0,1,1.15-4.81,10.42,10.42,0,0,1,3.44-3.74,17.8,17.8,0,0,1,5.72-2.42,33.29,33.29,0,0,1,8-.85,54.38,54.38,0,0,1,7.12.5,63.91,63.91,0,0,1,7.71,1.52,7.4,7.4,0,0,0-1.06-3.21,8.16,8.16,0,0,0-2.49-2.55,12.68,12.68,0,0,0-3.85-1.66,20.3,20.3,0,0,0-5.1-.59c-1,0-2.17.07-3.42.19s-2.52.31-3.84.56-2.63.56-3.93.93a26,26,0,0,0-3.61,1.33L737.66,368c1.38-.49,2.87-.95,4.45-1.36s3.2-.77,4.85-1.07,3.31-.53,5-.7,3.25-.25,4.81-.25q10.26,0,15.26,5.25T777,386v16h-9.18v-3.45a30.24,30.24,0,0,1-3.12,1.59,28.1,28.1,0,0,1-3.67,1.3,34.21,34.21,0,0,1-4.27.88,33.69,33.69,0,0,1-4.82.33,27.32,27.32,0,0,1-7.52-.93,16.35,16.35,0,0,1-5.42-2.58,10.89,10.89,0,0,1-3.27-3.86A10.76,10.76,0,0,1,734.62,390.37Zm9.68-.31a3.44,3.44,0,0,0,.46,1.72,4.26,4.26,0,0,0,1.49,1.46,9.18,9.18,0,0,0,2.62,1,16.61,16.61,0,0,0,3.87.39,24.76,24.76,0,0,0,4.68-.44,28.22,28.22,0,0,0,4.22-1.14,21.77,21.77,0,0,0,3.53-1.65,14.54,14.54,0,0,0,2.64-1.92v-1.61c-1.41-.4-2.8-.73-4.17-1s-2.69-.48-3.94-.63-2.43-.27-3.54-.33-2.07-.09-2.9-.09a22.24,22.24,0,0,0-4.28.34,9.67,9.67,0,0,0-2.76.92,3.66,3.66,0,0,0-1.49,1.34A3.28,3.28,0,0,0,744.3,390.06Z"/><path d="M903.71,350.45h9.18v51.46h-9.18Z"/></g></svg>